<svg xmlns="http://www.w3.org/2000/svg" width="32" height="32"><g fill="none" fill-rule="evenodd"><rect width="32" height="32" fill="#0091FF" rx="8"/><g fill-rule="nonzero"><path fill="#FFF" d="M16 7c-4.97 0-9 4.031-9 9 0 4.972 4.03 9 9 9s9-4.028 9-9c0-4.969-4.03-9-9-9z"/><path fill="#0091FF" d="M15.587 12.796c.448 0 .774-.09.977-.273a.878.878 0 0 0 .305-.685.778.778 0 0 0-.254-.606c-.169-.155-.457-.232-.863-.232-.398 0-.705.09-.92.27a.857.857 0 0 0-.324.688c0 .267.084.473.254.62.169.145.444.218.825.218zm1.568 7.218c.178 0 .297-.03.358-.09.062-.058.092-.162.092-.31 0-.174-.036-.33-.107-.47h-.75c-.02-.542-.033-1.12-.038-1.733v-3.123c0-.178-.011-.316-.034-.416-.024-.1-.117-.166-.28-.2-.163-.033-.468-.05-.917-.05-.597 0-.992.027-1.187.082-.195.055-.292.201-.292.438a.78.78 0 0 0 .108.413c.203 0 .357.018.463.054.106.036.184.124.235.266.05.142.084.366.099.673.014.307.022.928.022 1.863 0 .614-.01 1.191-.032 1.733h-.52c-.132 0-.227.029-.286.086-.06.057-.089.151-.089.282 0 .157.036.324.108.502h3.047z"/></g></g></svg>